# xmcd
#
# Track frame offsets:
#	150
#	20127
#	50892
#	71217
#
# Disc length: 1215 seconds
#
# Revision: 0
# Processed by: cddbd v1.5.2PL0 Copyright (c) Steve Scherf et al.
# Submitted via: EasyCDDAExtractor 10.2.0.1
#
DISCID=3d04bd04
DTITLE=Subsonic Legacy - Ode To Billy Joe [Maxi Single]
DYEAR=1900
DGENRE=
TTITLE0=Ode To Billy Joe [Original Version]
TTITLE1=Ode To Billy Joe [Space Mix]
TTITLE2=Ode To Billy Joe [Dubstramental]
TTITLE3=Ode To Billy Joe [Acoustic Version]
EXTD=
EXTT0=
EXTT1=
EXTT2=
EXTT3=
PLAYORDER=
